<mxfile host="Electron" modified="2024-06-17T17:13:10.337Z" agent="Mozilla/5.0 (Windows NT 10.0; Win64; x64) AppleWebKit/537.36 (KHTML, like Gecko) draw.io/24.4.8 Chrome/124.0.6367.207 Electron/30.0.6 Safari/537.36" etag="oklNU44IglCXLhS7qrzF" version="24.4.8" type="device">
  <diagram name="Page-1" id="2SH1rUMx0R4bfYoHDO2p">
    <mxGraphModel dx="1290" dy="1721" grid="1" gridSize="10" guides="1" tooltips="1" connect="1" arrows="1" fold="1" page="1" pageScale="1" pageWidth="850" pageHeight="1100" math="0" shadow="0">
      <root>
        <mxCell id="0" />
        <mxCell id="1" parent="0" />
        <mxCell id="4WvsvKmWblLvccb9aLc5-12" style="edgeStyle=orthogonalEdgeStyle;rounded=0;orthogonalLoop=1;jettySize=auto;html=1;entryX=0.5;entryY=0;entryDx=0;entryDy=0;" parent="1" source="4WvsvKmWblLvccb9aLc5-9" target="4WvsvKmWblLvccb9aLc5-11" edge="1">
          <mxGeometry relative="1" as="geometry" />
        </mxCell>
        <mxCell id="4WvsvKmWblLvccb9aLc5-9" value="US Accidents CSV" style="rounded=0;whiteSpace=wrap;html=1;fillColor=#CCE5FF;" parent="1" vertex="1">
          <mxGeometry x="50" y="170" width="120" height="60" as="geometry" />
        </mxCell>
        <mxCell id="4WvsvKmWblLvccb9aLc5-13" style="edgeStyle=orthogonalEdgeStyle;rounded=0;orthogonalLoop=1;jettySize=auto;html=1;entryX=0.5;entryY=1;entryDx=0;entryDy=0;" parent="1" source="4WvsvKmWblLvccb9aLc5-10" target="4WvsvKmWblLvccb9aLc5-11" edge="1">
          <mxGeometry relative="1" as="geometry" />
        </mxCell>
        <mxCell id="4WvsvKmWblLvccb9aLc5-10" value="Los Angeles Crimes CSV" style="rounded=0;whiteSpace=wrap;html=1;fillColor=#CCE5FF;" parent="1" vertex="1">
          <mxGeometry x="50" y="290" width="120" height="60" as="geometry" />
        </mxCell>
        <mxCell id="4WvsvKmWblLvccb9aLc5-15" style="edgeStyle=orthogonalEdgeStyle;rounded=0;orthogonalLoop=1;jettySize=auto;html=1;entryX=0;entryY=0.5;entryDx=0;entryDy=0;" parent="1" source="4WvsvKmWblLvccb9aLc5-11" target="4WvsvKmWblLvccb9aLc5-14" edge="1">
          <mxGeometry relative="1" as="geometry" />
        </mxCell>
        <mxCell id="4WvsvKmWblLvccb9aLc5-11" value="Python Merge Script" style="rounded=1;whiteSpace=wrap;html=1;fillColor=#FFCC99;" parent="1" vertex="1">
          <mxGeometry x="230" y="230" width="120" height="60" as="geometry" />
        </mxCell>
        <mxCell id="4WvsvKmWblLvccb9aLc5-14" value="Crimes Weather CSV" style="rounded=0;whiteSpace=wrap;html=1;fillColor=#CCE5FF;" parent="1" vertex="1">
          <mxGeometry x="410" y="230" width="120" height="60" as="geometry" />
        </mxCell>
        <mxCell id="4WvsvKmWblLvccb9aLc5-49" style="edgeStyle=orthogonalEdgeStyle;rounded=0;orthogonalLoop=1;jettySize=auto;html=1;entryX=0;entryY=0.25;entryDx=0;entryDy=0;" parent="1" source="4WvsvKmWblLvccb9aLc5-23" target="4WvsvKmWblLvccb9aLc5-45" edge="1">
          <mxGeometry relative="1" as="geometry">
            <Array as="points">
              <mxPoint x="690" y="65" />
            </Array>
          </mxGeometry>
        </mxCell>
        <mxCell id="4WvsvKmWblLvccb9aLc5-23" value="Source Table" style="shape=table;startSize=30;container=1;collapsible=1;childLayout=tableLayout;fixedRows=1;rowLines=0;fontStyle=1;align=center;resizeLast=1;html=1;fillColor=#B9E0A5;" parent="1" vertex="1">
          <mxGeometry x="600" y="230" width="180" height="90" as="geometry" />
        </mxCell>
        <mxCell id="4WvsvKmWblLvccb9aLc5-24" value="" style="shape=tableRow;horizontal=0;startSize=0;swimlaneHead=0;swimlaneBody=0;fillColor=none;collapsible=0;dropTarget=0;points=[[0,0.5],[1,0.5]];portConstraint=eastwest;top=0;left=0;right=0;bottom=1;" parent="4WvsvKmWblLvccb9aLc5-23" vertex="1">
          <mxGeometry y="30" width="180" height="30" as="geometry" />
        </mxCell>
        <mxCell id="4WvsvKmWblLvccb9aLc5-25" value="" style="shape=partialRectangle;connectable=0;fillColor=none;top=0;left=0;bottom=0;right=0;fontStyle=1;overflow=hidden;whiteSpace=wrap;html=1;" parent="4WvsvKmWblLvccb9aLc5-24" vertex="1">
          <mxGeometry width="30" height="30" as="geometry">
            <mxRectangle width="30" height="30" as="alternateBounds" />
          </mxGeometry>
        </mxCell>
        <mxCell id="4WvsvKmWblLvccb9aLc5-26" value="..." style="shape=partialRectangle;connectable=0;fillColor=none;top=0;left=0;bottom=0;right=0;align=left;spacingLeft=6;fontStyle=5;overflow=hidden;whiteSpace=wrap;html=1;" parent="4WvsvKmWblLvccb9aLc5-24" vertex="1">
          <mxGeometry x="30" width="150" height="30" as="geometry">
            <mxRectangle width="150" height="30" as="alternateBounds" />
          </mxGeometry>
        </mxCell>
        <mxCell id="4WvsvKmWblLvccb9aLc5-53" style="shape=tableRow;horizontal=0;startSize=0;swimlaneHead=0;swimlaneBody=0;fillColor=none;collapsible=0;dropTarget=0;points=[[0,0.5],[1,0.5]];portConstraint=eastwest;top=0;left=0;right=0;bottom=1;" parent="4WvsvKmWblLvccb9aLc5-23" vertex="1">
          <mxGeometry y="60" width="180" height="30" as="geometry" />
        </mxCell>
        <mxCell id="4WvsvKmWblLvccb9aLc5-54" style="shape=partialRectangle;connectable=0;fillColor=none;top=0;left=0;bottom=0;right=0;fontStyle=1;overflow=hidden;whiteSpace=wrap;html=1;" parent="4WvsvKmWblLvccb9aLc5-53" vertex="1">
          <mxGeometry width="30" height="30" as="geometry">
            <mxRectangle width="30" height="30" as="alternateBounds" />
          </mxGeometry>
        </mxCell>
        <mxCell id="4WvsvKmWblLvccb9aLc5-55" value="last_update_time" style="shape=partialRectangle;connectable=0;fillColor=none;top=0;left=0;bottom=0;right=0;align=left;spacingLeft=6;fontStyle=5;overflow=hidden;whiteSpace=wrap;html=1;" parent="4WvsvKmWblLvccb9aLc5-53" vertex="1">
          <mxGeometry x="30" width="150" height="30" as="geometry">
            <mxRectangle width="150" height="30" as="alternateBounds" />
          </mxGeometry>
        </mxCell>
        <mxCell id="4WvsvKmWblLvccb9aLc5-37" style="edgeStyle=orthogonalEdgeStyle;rounded=0;orthogonalLoop=1;jettySize=auto;html=1;entryX=0.035;entryY=-0.128;entryDx=0;entryDy=0;entryPerimeter=0;" parent="1" source="4WvsvKmWblLvccb9aLc5-14" target="4WvsvKmWblLvccb9aLc5-24" edge="1">
          <mxGeometry relative="1" as="geometry" />
        </mxCell>
        <mxCell id="4WvsvKmWblLvccb9aLc5-38" value="Control Table" style="shape=table;startSize=30;container=1;collapsible=1;childLayout=tableLayout;fixedRows=1;rowLines=0;fontStyle=1;align=center;resizeLast=1;html=1;fillColor=#B9E0A5;" parent="1" vertex="1">
          <mxGeometry x="810" y="340" width="180" height="60" as="geometry" />
        </mxCell>
        <mxCell id="4WvsvKmWblLvccb9aLc5-39" value="" style="shape=tableRow;horizontal=0;startSize=0;swimlaneHead=0;swimlaneBody=0;fillColor=none;collapsible=0;dropTarget=0;points=[[0,0.5],[1,0.5]];portConstraint=eastwest;top=0;left=0;right=0;bottom=1;" parent="4WvsvKmWblLvccb9aLc5-38" vertex="1">
          <mxGeometry y="30" width="180" height="30" as="geometry" />
        </mxCell>
        <mxCell id="4WvsvKmWblLvccb9aLc5-40" value="" style="shape=partialRectangle;connectable=0;fillColor=none;top=0;left=0;bottom=0;right=0;fontStyle=1;overflow=hidden;whiteSpace=wrap;html=1;" parent="4WvsvKmWblLvccb9aLc5-39" vertex="1">
          <mxGeometry width="30" height="30" as="geometry">
            <mxRectangle width="30" height="30" as="alternateBounds" />
          </mxGeometry>
        </mxCell>
        <mxCell id="4WvsvKmWblLvccb9aLc5-41" value="last_update_time" style="shape=partialRectangle;connectable=0;fillColor=none;top=0;left=0;bottom=0;right=0;align=left;spacingLeft=6;fontStyle=5;overflow=hidden;whiteSpace=wrap;html=1;" parent="4WvsvKmWblLvccb9aLc5-39" vertex="1">
          <mxGeometry x="30" width="150" height="30" as="geometry">
            <mxRectangle width="150" height="30" as="alternateBounds" />
          </mxGeometry>
        </mxCell>
        <mxCell id="4WvsvKmWblLvccb9aLc5-44" style="edgeStyle=orthogonalEdgeStyle;rounded=0;orthogonalLoop=1;jettySize=auto;html=1;entryX=0.4;entryY=-0.027;entryDx=0;entryDy=0;entryPerimeter=0;" parent="1" source="4WvsvKmWblLvccb9aLc5-23" target="4WvsvKmWblLvccb9aLc5-38" edge="1">
          <mxGeometry relative="1" as="geometry" />
        </mxCell>
        <mxCell id="4WvsvKmWblLvccb9aLc5-57" value="&lt;b&gt;Check new entries&lt;/b&gt;" style="edgeLabel;html=1;align=center;verticalAlign=middle;resizable=0;points=[];" parent="4WvsvKmWblLvccb9aLc5-44" vertex="1" connectable="0">
          <mxGeometry x="-0.5001" y="-2" relative="1" as="geometry">
            <mxPoint x="8" y="-2" as="offset" />
          </mxGeometry>
        </mxCell>
        <mxCell id="4WvsvKmWblLvccb9aLc5-52" style="edgeStyle=orthogonalEdgeStyle;rounded=0;orthogonalLoop=1;jettySize=auto;html=1;" parent="1" source="4WvsvKmWblLvccb9aLc5-45" edge="1">
          <mxGeometry relative="1" as="geometry">
            <mxPoint x="1250.0285714285715" y="120" as="targetPoint" />
          </mxGeometry>
        </mxCell>
        <mxCell id="4WvsvKmWblLvccb9aLc5-45" value="Staging Table" style="shape=table;startSize=30;container=1;collapsible=1;childLayout=tableLayout;fixedRows=1;rowLines=0;fontStyle=1;align=center;resizeLast=1;html=1;fillColor=#B9E0A5;" parent="1" vertex="1">
          <mxGeometry x="920" y="50" width="180" height="60" as="geometry" />
        </mxCell>
        <mxCell id="4WvsvKmWblLvccb9aLc5-46" value="" style="shape=tableRow;horizontal=0;startSize=0;swimlaneHead=0;swimlaneBody=0;fillColor=none;collapsible=0;dropTarget=0;points=[[0,0.5],[1,0.5]];portConstraint=eastwest;top=0;left=0;right=0;bottom=1;" parent="4WvsvKmWblLvccb9aLc5-45" vertex="1">
          <mxGeometry y="30" width="180" height="30" as="geometry" />
        </mxCell>
        <mxCell id="4WvsvKmWblLvccb9aLc5-47" value="" style="shape=partialRectangle;connectable=0;fillColor=none;top=0;left=0;bottom=0;right=0;fontStyle=1;overflow=hidden;whiteSpace=wrap;html=1;" parent="4WvsvKmWblLvccb9aLc5-46" vertex="1">
          <mxGeometry width="30" height="30" as="geometry">
            <mxRectangle width="30" height="30" as="alternateBounds" />
          </mxGeometry>
        </mxCell>
        <mxCell id="4WvsvKmWblLvccb9aLc5-48" value="..." style="shape=partialRectangle;connectable=0;fillColor=none;top=0;left=0;bottom=0;right=0;align=left;spacingLeft=6;fontStyle=5;overflow=hidden;whiteSpace=wrap;html=1;" parent="4WvsvKmWblLvccb9aLc5-46" vertex="1">
          <mxGeometry x="30" width="150" height="30" as="geometry">
            <mxRectangle width="150" height="30" as="alternateBounds" />
          </mxGeometry>
        </mxCell>
        <mxCell id="4WvsvKmWblLvccb9aLc5-56" style="edgeStyle=orthogonalEdgeStyle;rounded=0;orthogonalLoop=1;jettySize=auto;html=1;entryX=1.002;entryY=0.139;entryDx=0;entryDy=0;entryPerimeter=0;" parent="1" source="4WvsvKmWblLvccb9aLc5-45" target="4WvsvKmWblLvccb9aLc5-39" edge="1">
          <mxGeometry relative="1" as="geometry" />
        </mxCell>
        <mxCell id="4WvsvKmWblLvccb9aLc5-58" value="&lt;b&gt;Update Last update Time&lt;/b&gt;" style="edgeLabel;html=1;align=center;verticalAlign=middle;resizable=0;points=[];" parent="4WvsvKmWblLvccb9aLc5-56" vertex="1" connectable="0">
          <mxGeometry x="0.0051" y="1" relative="1" as="geometry">
            <mxPoint as="offset" />
          </mxGeometry>
        </mxCell>
        <mxCell id="4WvsvKmWblLvccb9aLc5-61" style="edgeStyle=orthogonalEdgeStyle;rounded=0;orthogonalLoop=1;jettySize=auto;html=1;entryX=0.5;entryY=0;entryDx=0;entryDy=0;fontStyle=1" parent="1" source="4WvsvKmWblLvccb9aLc5-59" target="4WvsvKmWblLvccb9aLc5-60" edge="1">
          <mxGeometry relative="1" as="geometry" />
        </mxCell>
        <mxCell id="4WvsvKmWblLvccb9aLc5-62" value="&lt;b&gt;SCD Type 4&lt;/b&gt;" style="edgeLabel;html=1;align=center;verticalAlign=middle;resizable=0;points=[];" parent="4WvsvKmWblLvccb9aLc5-61" vertex="1" connectable="0">
          <mxGeometry x="-0.5917" y="-2" relative="1" as="geometry">
            <mxPoint x="1" as="offset" />
          </mxGeometry>
        </mxCell>
        <mxCell id="4WvsvKmWblLvccb9aLc5-59" value="&lt;span style=&quot;font-weight: 700;&quot;&gt;Crimes_Weather Scheme&lt;/span&gt;" style="whiteSpace=wrap;html=1;aspect=fixed;fillColor=#C3ABD0;" parent="1" vertex="1">
          <mxGeometry x="1200" y="120" width="110" height="110" as="geometry" />
        </mxCell>
        <mxCell id="4WvsvKmWblLvccb9aLc5-60" value="&lt;span style=&quot;font-weight: 700;&quot;&gt;History_Crimes_Weather Scheme&lt;/span&gt;" style="whiteSpace=wrap;html=1;aspect=fixed;fillColor=#C3ABD0;" parent="1" vertex="1">
          <mxGeometry x="1380" y="270" width="150" height="150" as="geometry" />
        </mxCell>
        <mxCell id="4WvsvKmWblLvccb9aLc5-64" value="&lt;b&gt;Preprocessing&lt;/b&gt;" style="text;html=1;align=center;verticalAlign=middle;resizable=0;points=[];autosize=1;strokeColor=none;fillColor=none;" parent="1" vertex="1">
          <mxGeometry x="950" y="20" width="110" height="30" as="geometry" />
        </mxCell>
        <mxCell id="4WvsvKmWblLvccb9aLc5-65" value="US Accidents CSV" style="rounded=0;whiteSpace=wrap;html=1;fillColor=#CCE5FF;" parent="1" vertex="1">
          <mxGeometry x="1350" y="25" width="120" height="60" as="geometry" />
        </mxCell>
        <mxCell id="4WvsvKmWblLvccb9aLc5-68" style="edgeStyle=orthogonalEdgeStyle;rounded=0;orthogonalLoop=1;jettySize=auto;html=1;entryX=0.75;entryY=0;entryDx=0;entryDy=0;" parent="1" source="4WvsvKmWblLvccb9aLc5-66" target="4WvsvKmWblLvccb9aLc5-59" edge="1">
          <mxGeometry relative="1" as="geometry" />
        </mxCell>
        <mxCell id="4WvsvKmWblLvccb9aLc5-66" value="US Accidents CSV" style="rounded=0;whiteSpace=wrap;html=1;fillColor=#CCE5FF;" parent="1" vertex="1">
          <mxGeometry x="1360" y="5" width="120" height="60" as="geometry" />
        </mxCell>
        <mxCell id="4WvsvKmWblLvccb9aLc5-67" value="&lt;b&gt;Dimension Data&lt;/b&gt;" style="rounded=0;whiteSpace=wrap;html=1;fillColor=#CCE5FF;" parent="1" vertex="1">
          <mxGeometry x="1370" y="-15" width="120" height="60" as="geometry" />
        </mxCell>
        <mxCell id="4WvsvKmWblLvccb9aLc5-70" value="&lt;b&gt;Data is loaded from CSV files&lt;/b&gt;" style="text;html=1;align=center;verticalAlign=middle;resizable=0;points=[];autosize=1;strokeColor=none;fillColor=none;" parent="1" vertex="1">
          <mxGeometry x="1155" y="8" width="190" height="30" as="geometry" />
        </mxCell>
        <mxCell id="S0SFvzTtciAPlwD54tM--1" value="Invalid Records" style="shape=table;startSize=30;container=1;collapsible=1;childLayout=tableLayout;fixedRows=1;rowLines=0;fontStyle=1;align=center;resizeLast=1;html=1;fillColor=#B9E0A5;" vertex="1" parent="1">
          <mxGeometry x="940" y="-120" width="180" height="60" as="geometry" />
        </mxCell>
        <mxCell id="S0SFvzTtciAPlwD54tM--2" value="" style="shape=tableRow;horizontal=0;startSize=0;swimlaneHead=0;swimlaneBody=0;fillColor=none;collapsible=0;dropTarget=0;points=[[0,0.5],[1,0.5]];portConstraint=eastwest;top=0;left=0;right=0;bottom=1;" vertex="1" parent="S0SFvzTtciAPlwD54tM--1">
          <mxGeometry y="30" width="180" height="30" as="geometry" />
        </mxCell>
        <mxCell id="S0SFvzTtciAPlwD54tM--3" value="" style="shape=partialRectangle;connectable=0;fillColor=none;top=0;left=0;bottom=0;right=0;fontStyle=1;overflow=hidden;whiteSpace=wrap;html=1;" vertex="1" parent="S0SFvzTtciAPlwD54tM--2">
          <mxGeometry width="30" height="30" as="geometry">
            <mxRectangle width="30" height="30" as="alternateBounds" />
          </mxGeometry>
        </mxCell>
        <mxCell id="S0SFvzTtciAPlwD54tM--4" value="...&amp;nbsp;" style="shape=partialRectangle;connectable=0;fillColor=none;top=0;left=0;bottom=0;right=0;align=left;spacingLeft=6;fontStyle=5;overflow=hidden;whiteSpace=wrap;html=1;" vertex="1" parent="S0SFvzTtciAPlwD54tM--2">
          <mxGeometry x="30" width="150" height="30" as="geometry">
            <mxRectangle width="150" height="30" as="alternateBounds" />
          </mxGeometry>
        </mxCell>
        <mxCell id="S0SFvzTtciAPlwD54tM--5" style="edgeStyle=orthogonalEdgeStyle;rounded=0;orthogonalLoop=1;jettySize=auto;html=1;entryX=0.042;entryY=-0.04;entryDx=0;entryDy=0;entryPerimeter=0;" edge="1" parent="1" source="4WvsvKmWblLvccb9aLc5-45" target="S0SFvzTtciAPlwD54tM--2">
          <mxGeometry relative="1" as="geometry" />
        </mxCell>
      </root>
    </mxGraphModel>
  </diagram>
</mxfile>
